{
	"patcher" : 	{
		"fileversion" : 1,
		"appversion" : 		{
			"major" : 8,
			"minor" : 5,
			"revision" : 4,
			"architecture" : "x64",
			"modernui" : 1
		}
,
		"classnamespace" : "box",
		"rect" : [ 40.0, 82.0, 907.0, 830.0 ],
		"bglocked" : 0,
		"openinpresentation" : 0,
		"default_fontsize" : 12.0,
		"default_fontface" : 0,
		"default_fontname" : "Arial",
		"gridonopen" : 1,
		"gridsize" : [ 15.0, 15.0 ],
		"gridsnaponopen" : 1,
		"objectsnaponopen" : 1,
		"statusbarvisible" : 2,
		"toolbarvisible" : 1,
		"lefttoolbarpinned" : 0,
		"toptoolbarpinned" : 0,
		"righttoolbarpinned" : 0,
		"bottomtoolbarpinned" : 0,
		"toolbars_unpinned_last_save" : 0,
		"tallnewobj" : 0,
		"boxanimatetime" : 200,
		"enablehscroll" : 1,
		"enablevscroll" : 1,
		"devicewidth" : 0.0,
		"description" : "",
		"digest" : "",
		"tags" : "",
		"style" : "",
		"subpatcher_template" : "",
		"assistshowspatchername" : 0,
		"boxes" : [ 			{
				"box" : 				{
					"format" : 6,
					"hidden" : 1,
					"id" : "obj-53",
					"maxclass" : "flonum",
					"numinlets" : 1,
					"numoutlets" : 2,
					"outlettype" : [ "", "bang" ],
					"parameter_enable" : 0,
					"patching_rect" : [ 762.329319477081299, 317.0, 50.0, 22.0 ]
				}

			}
, 			{
				"box" : 				{
					"hidden" : 1,
					"id" : "obj-44",
					"maxclass" : "newobj",
					"numinlets" : 6,
					"numoutlets" : 1,
					"outlettype" : [ "" ],
					"patching_rect" : [ 762.329319477081299, 280.0, 117.0, 22.0 ],
					"text" : "scale 0 4095 0. 158."
				}

			}
, 			{
				"box" : 				{
					"hidden" : 1,
					"id" : "obj-43",
					"maxclass" : "number",
					"numinlets" : 1,
					"numoutlets" : 2,
					"outlettype" : [ "", "bang" ],
					"parameter_enable" : 0,
					"patching_rect" : [ 652.329319477081299, 317.0, 50.0, 22.0 ]
				}

			}
, 			{
				"box" : 				{
					"hidden" : 1,
					"id" : "obj-40",
					"maxclass" : "newobj",
					"numinlets" : 6,
					"numoutlets" : 1,
					"outlettype" : [ "" ],
					"patching_rect" : [ 652.329319477081299, 280.0, 103.0, 22.0 ],
					"text" : "scale 0 4095 0 10"
				}

			}
, 			{
				"box" : 				{
					"hidden" : 1,
					"id" : "obj-39",
					"maxclass" : "slider",
					"min" : 1.0,
					"numinlets" : 1,
					"numoutlets" : 1,
					"outlettype" : [ "" ],
					"parameter_enable" : 0,
					"patching_rect" : [ 555.252345502376556, 94.296817183494568, 20.0, 140.0 ],
					"size" : 4095.0
				}

			}
, 			{
				"box" : 				{
					"format" : 6,
					"hidden" : 1,
					"id" : "obj-37",
					"maxclass" : "flonum",
					"numinlets" : 1,
					"numoutlets" : 2,
					"outlettype" : [ "", "bang" ],
					"parameter_enable" : 0,
					"patching_rect" : [ 538.329319477081299, 317.0, 50.0, 22.0 ]
				}

			}
, 			{
				"box" : 				{
					"hidden" : 1,
					"id" : "obj-29",
					"maxclass" : "newobj",
					"numinlets" : 6,
					"numoutlets" : 1,
					"outlettype" : [ "" ],
					"patching_rect" : [ 538.329319477081299, 280.0, 110.0, 22.0 ],
					"text" : "scale 0 4095 1.5 0."
				}

			}
, 			{
				"box" : 				{
					"format" : 6,
					"hidden" : 1,
					"id" : "obj-15",
					"maxclass" : "flonum",
					"numinlets" : 1,
					"numoutlets" : 2,
					"outlettype" : [ "", "bang" ],
					"parameter_enable" : 0,
					"patching_rect" : [ 434.0, 320.091704487800598, 50.0, 22.0 ]
				}

			}
, 			{
				"box" : 				{
					"hidden" : 1,
					"id" : "obj-11",
					"maxclass" : "newobj",
					"numinlets" : 6,
					"numoutlets" : 1,
					"outlettype" : [ "" ],
					"patching_rect" : [ 434.0, 280.0, 103.0, 22.0 ],
					"text" : "scale 0 4095 24 0"
				}

			}
, 			{
				"box" : 				{
					"hidden" : 1,
					"id" : "obj-10",
					"maxclass" : "message",
					"numinlets" : 2,
					"numoutlets" : 1,
					"outlettype" : [ "" ],
					"patching_rect" : [ 361.508373618125916, 462.02579653263092, 29.5, 22.0 ],
					"text" : "1.5"
				}

			}
, 			{
				"box" : 				{
					"hidden" : 1,
					"id" : "obj-3",
					"maxclass" : "newobj",
					"numinlets" : 1,
					"numoutlets" : 1,
					"outlettype" : [ "bang" ],
					"patching_rect" : [ 361.508373618125916, 415.0, 58.0, 22.0 ],
					"text" : "loadbang"
				}

			}
, 			{
				"box" : 				{
					"hidden" : 1,
					"id" : "obj-2",
					"maxclass" : "message",
					"numinlets" : 2,
					"numoutlets" : 1,
					"outlettype" : [ "" ],
					"patching_rect" : [ 361.508373618125916, 439.0, 29.5, 22.0 ],
					"text" : "24"
				}

			}
, 			{
				"box" : 				{
					"comment" : "Phasor Gain",
					"id" : "obj-86",
					"index" : 0,
					"maxclass" : "inlet",
					"numinlets" : 0,
					"numoutlets" : 1,
					"outlettype" : [ "" ],
					"patching_rect" : [ 195.616613149642944, 371.280479550361633, 30.0, 30.0 ],
					"varname" : "PhasorGain"
				}

			}
, 			{
				"box" : 				{
					"comment" : "Drive Factor",
					"id" : "obj-85",
					"index" : 0,
					"maxclass" : "inlet",
					"numinlets" : 0,
					"numoutlets" : 1,
					"outlettype" : [ "" ],
					"patching_rect" : [ 152.90793764591217, 336.091704487800598, 30.0, 30.0 ],
					"varname" : "Drive"
				}

			}
, 			{
				"box" : 				{
					"comment" : "Resolution (in bits)",
					"id" : "obj-84",
					"index" : 0,
					"maxclass" : "inlet",
					"numinlets" : 0,
					"numoutlets" : 1,
					"outlettype" : [ "" ],
					"patching_rect" : [ 108.497781038284273, 299.827966451644897, 30.0, 30.0 ],
					"varname" : "Resolution"
				}

			}
, 			{
				"box" : 				{
					"annotation" : "Sample-Rate",
					"comment" : "Sampling-Rate",
					"id" : "obj-83",
					"index" : 0,
					"maxclass" : "inlet",
					"numinlets" : 0,
					"numoutlets" : 1,
					"outlettype" : [ "" ],
					"patching_rect" : [ 67.441499829292297, 261.366426110267639, 30.0, 30.0 ],
					"varname" : "Sampling-Rate"
				}

			}
, 			{
				"box" : 				{
					"activedialcolor" : [ 1.0, 0.694117647058824, 0.0, 1.0 ],
					"activefgdialcolor" : [ 0.929411764705882, 0.941176470588235, 0.956862745098039, 1.0 ],
					"activeneedlecolor" : [ 0.501961, 0.501961, 0.501961, 1.0 ],
					"appearance" : 3,
					"fontsize" : 12.0,
					"id" : "obj-78",
					"maxclass" : "live.dial",
					"numinlets" : 1,
					"numoutlets" : 2,
					"outlettype" : [ "", "float" ],
					"parameter_enable" : 1,
					"patching_rect" : [ 256.366605877876282, 85.081914760563905, 61.0, 69.0 ],
					"saved_attribute_attributes" : 					{
						"activedialcolor" : 						{
							"expression" : "themecolor.live_display_handle_one"
						}
,
						"activefgdialcolor" : 						{
							"expression" : "themecolor.live_output_curve_outline_color"
						}
,
						"activeneedlecolor" : 						{
							"expression" : "themecolor.theme_accentcolor"
						}
,
						"textcolor" : 						{
							"expression" : "themecolor.live_output_curve_outline_color"
						}
,
						"valueof" : 						{
							"parameter_longname" : "Phasor Gain",
							"parameter_mmax" : 24.0,
							"parameter_shortname" : "Phasor",
							"parameter_type" : 0,
							"parameter_unitstyle" : 0
						}

					}
,
					"textcolor" : [ 0.929411764705882, 0.941176470588235, 0.956862745098039, 1.0 ],
					"varname" : "live.dial[4]"
				}

			}
, 			{
				"box" : 				{
					"activedialcolor" : [ 1.0, 0.694117647058824, 0.0, 1.0 ],
					"activefgdialcolor" : [ 0.929411764705882, 0.941176470588235, 0.956862745098039, 1.0 ],
					"activeneedlecolor" : [ 0.501961, 0.501961, 0.501961, 1.0 ],
					"appearance" : 3,
					"fontsize" : 12.0,
					"id" : "obj-77",
					"maxclass" : "live.dial",
					"numinlets" : 1,
					"numoutlets" : 2,
					"outlettype" : [ "", "float" ],
					"parameter_enable" : 1,
					"patching_rect" : [ 180.116613149642944, 85.081914760563905, 61.0, 69.0 ],
					"saved_attribute_attributes" : 					{
						"activedialcolor" : 						{
							"expression" : "themecolor.live_display_handle_one"
						}
,
						"activefgdialcolor" : 						{
							"expression" : "themecolor.live_output_curve_outline_color"
						}
,
						"activeneedlecolor" : 						{
							"expression" : "themecolor.theme_accentcolor"
						}
,
						"textcolor" : 						{
							"expression" : "themecolor.live_output_curve_outline_color"
						}
,
						"valueof" : 						{
							"parameter_longname" : "Drive Factor",
							"parameter_mmax" : 10.0,
							"parameter_mmin" : 1.0,
							"parameter_shortname" : "Drive",
							"parameter_type" : 0,
							"parameter_unitstyle" : 0
						}

					}
,
					"textcolor" : [ 0.929411764705882, 0.941176470588235, 0.956862745098039, 1.0 ],
					"varname" : "live.dial[3]"
				}

			}
, 			{
				"box" : 				{
					"hidden" : 1,
					"id" : "obj-76",
					"maxclass" : "comment",
					"numinlets" : 1,
					"numoutlets" : 0,
					"patching_rect" : [ 241.008373618125916, 376.280479550361633, 150.0, 20.0 ],
					"text" : "Phasor Gain"
				}

			}
, 			{
				"box" : 				{
					"id" : "obj-74",
					"maxclass" : "comment",
					"numinlets" : 1,
					"numoutlets" : 0,
					"patching_rect" : [ 100.451776266098022, 266.366426110267639, 150.0, 20.0 ],
					"text" : "Sampling-Rate Ratio"
				}

			}
, 			{
				"box" : 				{
					"id" : "obj-72",
					"maxclass" : "number",
					"numinlets" : 1,
					"numoutlets" : 2,
					"outlettype" : [ "", "bang" ],
					"parameter_enable" : 0,
					"patching_rect" : [ 300.175415992736816, 660.773552179336548, 50.0, 22.0 ]
				}

			}
, 			{
				"box" : 				{
					"activedialcolor" : [ 1.0, 0.694117647058824, 0.0, 1.0 ],
					"activefgdialcolor" : [ 0.929411764705882, 0.941176470588235, 0.956862745098039, 1.0 ],
					"activeneedlecolor" : [ 0.501961, 0.501961, 0.501961, 1.0 ],
					"appearance" : 3,
					"fontsize" : 12.0,
					"id" : "obj-70",
					"maxclass" : "live.dial",
					"numinlets" : 1,
					"numoutlets" : 2,
					"outlettype" : [ "", "float" ],
					"parameter_enable" : 1,
					"patching_rect" : [ 180.116613149642944, 2.503763296101624, 61.0, 69.0 ],
					"saved_attribute_attributes" : 					{
						"activedialcolor" : 						{
							"expression" : "themecolor.live_display_handle_one"
						}
,
						"activefgdialcolor" : 						{
							"expression" : "themecolor.live_output_curve_outline_color"
						}
,
						"activeneedlecolor" : 						{
							"expression" : "themecolor.theme_accentcolor"
						}
,
						"textcolor" : 						{
							"expression" : "themecolor.live_output_curve_outline_color"
						}
,
						"valueof" : 						{
							"parameter_longname" : "Sampling Rate",
							"parameter_mmax" : 1.0,
							"parameter_mmin" : 0.5,
							"parameter_shortname" : "SMPL Rate",
							"parameter_type" : 0,
							"parameter_unitstyle" : 1
						}

					}
,
					"textcolor" : [ 0.929411764705882, 0.941176470588235, 0.956862745098039, 1.0 ],
					"varname" : "live.dial[2]"
				}

			}
, 			{
				"box" : 				{
					"id" : "obj-69",
					"maxclass" : "comment",
					"numinlets" : 1,
					"numoutlets" : 0,
					"patching_rect" : [ 208.4509516954422, 865.77875816822052, 288.74998676776886, 20.0 ],
					"text" : "Combine Overdriven, Degraded Output with Phasor"
				}

			}
, 			{
				"box" : 				{
					"id" : "obj-67",
					"maxclass" : "comment",
					"numinlets" : 1,
					"numoutlets" : 0,
					"patching_rect" : [ 143.721451342105865, 304.827966451644897, 150.0, 20.0 ],
					"text" : "Resolution (Bits)"
				}

			}
, 			{
				"box" : 				{
					"comment" : "",
					"id" : "obj-65",
					"index" : 0,
					"maxclass" : "outlet",
					"numinlets" : 1,
					"numoutlets" : 0,
					"patching_rect" : [ 182.450940251350403, 946.162428736686707, 30.0, 30.0 ],
					"varname" : "Output"
				}

			}
, 			{
				"box" : 				{
					"id" : "obj-61",
					"maxclass" : "newobj",
					"numinlets" : 2,
					"numoutlets" : 1,
					"outlettype" : [ "signal" ],
					"patching_rect" : [ 172.903515815734863, 865.77875816822052, 29.5, 22.0 ],
					"text" : "+~"
				}

			}
, 			{
				"box" : 				{
					"id" : "obj-60",
					"maxclass" : "newobj",
					"numinlets" : 3,
					"numoutlets" : 2,
					"outlettype" : [ "signal", "bang" ],
					"patching_rect" : [ 640.425407767295837, 781.802624821662903, 40.0, 22.0 ],
					"text" : "train~"
				}

			}
, 			{
				"box" : 				{
					"id" : "obj-58",
					"maxclass" : "newobj",
					"numinlets" : 2,
					"numoutlets" : 1,
					"outlettype" : [ "signal" ],
					"patching_rect" : [ 538.329319477081299, 860.64942193031311, 43.0, 22.0 ],
					"text" : "cycle~"
				}

			}
, 			{
				"box" : 				{
					"id" : "obj-51",
					"maxclass" : "comment",
					"numinlets" : 1,
					"numoutlets" : 0,
					"patching_rect" : [ 67.441499829292297, 222.904885768890381, 150.0, 20.0 ],
					"text" : "Audio In"
				}

			}
, 			{
				"box" : 				{
					"comment" : "",
					"id" : "obj-49",
					"index" : 0,
					"maxclass" : "inlet",
					"numinlets" : 0,
					"numoutlets" : 1,
					"outlettype" : [ "" ],
					"patching_rect" : [ 31.818268418312073, 222.904885768890381, 30.0, 30.0 ],
					"varname" : "InputAudio"
				}

			}
, 			{
				"box" : 				{
					"id" : "obj-48",
					"maxclass" : "comment",
					"numinlets" : 1,
					"numoutlets" : 0,
					"patching_rect" : [ 188.528700470924377, 341.091704487800598, 150.0, 20.0 ],
					"text" : "Drive Factor"
				}

			}
, 			{
				"box" : 				{
					"id" : "obj-46",
					"maxclass" : "newobj",
					"numinlets" : 2,
					"numoutlets" : 1,
					"outlettype" : [ "signal" ],
					"patching_rect" : [ 201.480482399463654, 740.662488579750061, 52.0, 22.0 ],
					"text" : "phasor~"
				}

			}
, 			{
				"box" : 				{
					"format" : 6,
					"id" : "obj-45",
					"maxclass" : "flonum",
					"numinlets" : 1,
					"numoutlets" : 2,
					"outlettype" : [ "", "bang" ],
					"parameter_enable" : 0,
					"patching_rect" : [ 244.329317092895508, 660.773552179336548, 50.0, 22.0 ]
				}

			}
, 			{
				"box" : 				{
					"floatoutput" : 1,
					"id" : "obj-30",
					"maxclass" : "slider",
					"min" : 1.0,
					"numinlets" : 1,
					"numoutlets" : 1,
					"outlettype" : [ "" ],
					"parameter_enable" : 0,
					"patching_rect" : [ 200.616613149642944, 485.296817183494568, 20.0, 140.0 ],
					"size" : 10.0
				}

			}
, 			{
				"box" : 				{
					"id" : "obj-26",
					"maxclass" : "newobj",
					"numinlets" : 2,
					"numoutlets" : 1,
					"outlettype" : [ "signal" ],
					"patching_rect" : [ 114.02427351474762, 812.662488579750061, 65.0, 22.0 ],
					"text" : "overdrive~"
				}

			}
, 			{
				"box" : 				{
					"id" : "obj-24",
					"linecount" : 3,
					"maxclass" : "comment",
					"numinlets" : 1,
					"numoutlets" : 0,
					"patching_rect" : [ 696.675407886505127, 989.836166977882385, 150.0, 48.0 ],
					"text" : "Clipping also works, it's really Overdrive that you are looking for "
				}

			}
, 			{
				"box" : 				{
					"id" : "obj-16",
					"maxclass" : "comment",
					"numinlets" : 1,
					"numoutlets" : 0,
					"patching_rect" : [ 696.675407886505127, 952.552608728408813, 150.0, 20.0 ],
					"text" : "Multiplying by a sin wave"
				}

			}
, 			{
				"box" : 				{
					"id" : "obj-7",
					"maxclass" : "newobj",
					"numinlets" : 2,
					"numoutlets" : 1,
					"outlettype" : [ "signal" ],
					"patching_rect" : [ 119.967013597488403, 777.946046829223633, 29.5, 22.0 ],
					"text" : "*~"
				}

			}
, 			{
				"box" : 				{
					"activedialcolor" : [ 1.0, 0.694117647058824, 0.0, 1.0 ],
					"activefgdialcolor" : [ 0.929411764705882, 0.941176470588235, 0.956862745098039, 1.0 ],
					"activeneedlecolor" : [ 0.501961, 0.501961, 0.501961, 1.0 ],
					"appearance" : 3,
					"fontsize" : 12.0,
					"id" : "obj-18",
					"maxclass" : "live.dial",
					"numinlets" : 1,
					"numoutlets" : 2,
					"outlettype" : [ "", "float" ],
					"parameter_enable" : 1,
					"patching_rect" : [ 256.366605877876282, 2.503763296101624, 61.0, 69.0 ],
					"saved_attribute_attributes" : 					{
						"activedialcolor" : 						{
							"expression" : "themecolor.live_display_handle_one"
						}
,
						"activefgdialcolor" : 						{
							"expression" : "themecolor.live_output_curve_outline_color"
						}
,
						"activeneedlecolor" : 						{
							"expression" : "themecolor.theme_accentcolor"
						}
,
						"textcolor" : 						{
							"expression" : "themecolor.live_output_curve_outline_color"
						}
,
						"valueof" : 						{
							"parameter_longname" : "Resolution",
							"parameter_mmax" : 24.0,
							"parameter_shortname" : "Resolution",
							"parameter_type" : 0,
							"parameter_unitstyle" : 0
						}

					}
,
					"textcolor" : [ 0.929411764705882, 0.941176470588235, 0.956862745098039, 1.0 ],
					"varname" : "live.dial[1]"
				}

			}
, 			{
				"box" : 				{
					"hidden" : 1,
					"id" : "obj-38",
					"maxclass" : "toggle",
					"numinlets" : 1,
					"numoutlets" : 1,
					"outlettype" : [ "int" ],
					"parameter_enable" : 0,
					"patching_rect" : [ 533.752345502376556, 562.609197616577148, 24.0, 24.0 ]
				}

			}
, 			{
				"box" : 				{
					"hidden" : 1,
					"id" : "obj-36",
					"maxclass" : "newobj",
					"numinlets" : 2,
					"numoutlets" : 1,
					"outlettype" : [ "int" ],
					"patching_rect" : [ 611.829312086105347, 629.02579653263092, 32.0, 22.0 ],
					"text" : "+ 53"
				}

			}
, 			{
				"box" : 				{
					"hidden" : 1,
					"id" : "obj-35",
					"maxclass" : "newobj",
					"numinlets" : 2,
					"numoutlets" : 1,
					"outlettype" : [ "int" ],
					"patching_rect" : [ 533.752345502376556, 629.02579653263092, 66.0, 22.0 ],
					"text" : "random 24"
				}

			}
, 			{
				"box" : 				{
					"hidden" : 1,
					"id" : "obj-34",
					"maxclass" : "newobj",
					"numinlets" : 2,
					"numoutlets" : 1,
					"outlettype" : [ "bang" ],
					"patching_rect" : [ 533.752345502376556, 598.256562829017639, 63.0, 22.0 ],
					"text" : "metro 250"
				}

			}
, 			{
				"box" : 				{
					"hidden" : 1,
					"id" : "obj-31",
					"maxclass" : "newobj",
					"numinlets" : 1,
					"numoutlets" : 1,
					"outlettype" : [ "" ],
					"patching_rect" : [ 533.752345502376556, 776.101496756076813, 32.0, 22.0 ],
					"text" : "mtof"
				}

			}
, 			{
				"box" : 				{
					"hidden" : 1,
					"id" : "obj-28",
					"maxclass" : "kslider",
					"numinlets" : 2,
					"numoutlets" : 2,
					"outlettype" : [ "int", "int" ],
					"parameter_enable" : 0,
					"patching_rect" : [ 533.752345502376556, 668.796817183494568, 336.0, 53.0 ]
				}

			}
, 			{
				"box" : 				{
					"id" : "obj-27",
					"maxclass" : "number",
					"numinlets" : 1,
					"numoutlets" : 2,
					"outlettype" : [ "", "bang" ],
					"parameter_enable" : 0,
					"patching_rect" : [ 177.919620335102081, 660.773552179336548, 50.0, 22.0 ]
				}

			}
, 			{
				"box" : 				{
					"format" : 6,
					"id" : "obj-25",
					"maxclass" : "flonum",
					"numinlets" : 1,
					"numoutlets" : 2,
					"outlettype" : [ "", "bang" ],
					"parameter_enable" : 0,
					"patching_rect" : [ 121.52427351474762, 660.773552179336548, 50.0, 22.0 ]
				}

			}
, 			{
				"box" : 				{
					"id" : "obj-21",
					"maxclass" : "slider",
					"min" : 1.0,
					"numinlets" : 1,
					"numoutlets" : 1,
					"outlettype" : [ "" ],
					"parameter_enable" : 0,
					"patching_rect" : [ 168.691499829292297, 470.296817183494568, 20.0, 140.0 ],
					"size" : 24.0
				}

			}
, 			{
				"box" : 				{
					"floatoutput" : 1,
					"id" : "obj-19",
					"maxclass" : "slider",
					"min" : 0.5,
					"numinlets" : 1,
					"numoutlets" : 1,
					"outlettype" : [ "" ],
					"parameter_enable" : 0,
					"patching_rect" : [ 135.845260322093964, 446.609197616577148, 20.0, 140.0 ],
					"size" : 1.0
				}

			}
, 			{
				"box" : 				{
					"id" : "obj-4",
					"maxclass" : "newobj",
					"numinlets" : 3,
					"numoutlets" : 1,
					"outlettype" : [ "signal" ],
					"patching_rect" : [ 119.967013597488403, 740.662488579750061, 60.0, 22.0 ],
					"text" : "degrade~"
				}

			}
, 			{
				"box" : 				{
					"id" : "obj-12",
					"maxclass" : "ezdac~",
					"numinlets" : 2,
					"numoutlets" : 0,
					"patching_rect" : [ 114.02427351474762, 934.912429094314575, 45.0, 45.0 ]
				}

			}
, 			{
				"box" : 				{
					"id" : "obj-5",
					"maxclass" : "gain~",
					"multichannelvariant" : 0,
					"numinlets" : 1,
					"numoutlets" : 2,
					"outlettype" : [ "signal", "" ],
					"parameter_enable" : 0,
					"patching_rect" : [ 241.008373618125916, 524.151426732540131, 19.862516820430756, 118.950070023536682 ]
				}

			}
, 			{
				"box" : 				{
					"activedialcolor" : [ 1.0, 0.694117647058824, 0.0, 1.0 ],
					"activefgdialcolor" : [ 0.929411764705882, 0.941176470588235, 0.956862745098039, 1.0 ],
					"activeneedlecolor" : [ 0.501961, 0.501961, 0.501961, 1.0 ],
					"appearance" : 3,
					"fontsize" : 24.0,
					"id" : "obj-9",
					"maxclass" : "live.dial",
					"numinlets" : 1,
					"numoutlets" : 2,
					"outlettype" : [ "", "float" ],
					"parameter_enable" : 1,
					"patching_rect" : [ 21.497781038284273, 35.445108471208982, 117.0, 98.0 ],
					"saved_attribute_attributes" : 					{
						"activedialcolor" : 						{
							"expression" : "themecolor.live_display_handle_one"
						}
,
						"activefgdialcolor" : 						{
							"expression" : "themecolor.live_output_curve_outline_color"
						}
,
						"activeneedlecolor" : 						{
							"expression" : "themecolor.theme_accentcolor"
						}
,
						"textcolor" : 						{
							"expression" : "themecolor.live_output_curve_outline_color"
						}
,
						"valueof" : 						{
							"parameter_longname" : "Distortion",
							"parameter_shortname" : "Distortion",
							"parameter_type" : 0,
							"parameter_unitstyle" : 0
						}

					}
,
					"textcolor" : [ 0.929411764705882, 0.941176470588235, 0.956862745098039, 1.0 ],
					"varname" : "live.dial"
				}

			}
, 			{
				"box" : 				{
					"id" : "obj-42",
					"maxclass" : "panel",
					"numinlets" : 1,
					"numoutlets" : 0,
					"patching_rect" : [ 1.680665016174288, 2.503763296101624, 332.454545259475708, 176.805395841598511 ]
				}

			}
 ],
		"lines" : [ 			{
				"patchline" : 				{
					"destination" : [ "obj-19", 0 ],
					"hidden" : 1,
					"source" : [ "obj-10", 0 ]
				}

			}
, 			{
				"patchline" : 				{
					"destination" : [ "obj-15", 0 ],
					"hidden" : 1,
					"source" : [ "obj-11", 0 ]
				}

			}
, 			{
				"patchline" : 				{
					"destination" : [ "obj-21", 0 ],
					"hidden" : 1,
					"source" : [ "obj-15", 0 ]
				}

			}
, 			{
				"patchline" : 				{
					"destination" : [ "obj-25", 0 ],
					"order" : 2,
					"source" : [ "obj-19", 0 ]
				}

			}
, 			{
				"patchline" : 				{
					"destination" : [ "obj-4", 1 ],
					"hidden" : 1,
					"order" : 1,
					"source" : [ "obj-19", 0 ]
				}

			}
, 			{
				"patchline" : 				{
					"destination" : [ "obj-70", 0 ],
					"hidden" : 1,
					"order" : 0,
					"source" : [ "obj-19", 0 ]
				}

			}
, 			{
				"patchline" : 				{
					"destination" : [ "obj-21", 0 ],
					"hidden" : 1,
					"source" : [ "obj-2", 0 ]
				}

			}
, 			{
				"patchline" : 				{
					"destination" : [ "obj-18", 0 ],
					"hidden" : 1,
					"order" : 0,
					"source" : [ "obj-21", 0 ]
				}

			}
, 			{
				"patchline" : 				{
					"destination" : [ "obj-27", 0 ],
					"order" : 1,
					"source" : [ "obj-21", 0 ]
				}

			}
, 			{
				"patchline" : 				{
					"destination" : [ "obj-4", 2 ],
					"hidden" : 1,
					"order" : 2,
					"source" : [ "obj-21", 0 ]
				}

			}
, 			{
				"patchline" : 				{
					"destination" : [ "obj-5", 0 ],
					"hidden" : 1,
					"order" : 0,
					"source" : [ "obj-26", 0 ]
				}

			}
, 			{
				"patchline" : 				{
					"destination" : [ "obj-61", 0 ],
					"order" : 1,
					"source" : [ "obj-26", 0 ]
				}

			}
, 			{
				"patchline" : 				{
					"destination" : [ "obj-31", 0 ],
					"hidden" : 1,
					"source" : [ "obj-28", 0 ]
				}

			}
, 			{
				"patchline" : 				{
					"destination" : [ "obj-37", 0 ],
					"hidden" : 1,
					"source" : [ "obj-29", 0 ]
				}

			}
, 			{
				"patchline" : 				{
					"destination" : [ "obj-10", 0 ],
					"hidden" : 1,
					"order" : 0,
					"source" : [ "obj-3", 0 ]
				}

			}
, 			{
				"patchline" : 				{
					"destination" : [ "obj-2", 0 ],
					"hidden" : 1,
					"order" : 1,
					"source" : [ "obj-3", 0 ]
				}

			}
, 			{
				"patchline" : 				{
					"destination" : [ "obj-26", 1 ],
					"hidden" : 1,
					"order" : 2,
					"source" : [ "obj-30", 0 ]
				}

			}
, 			{
				"patchline" : 				{
					"destination" : [ "obj-45", 0 ],
					"order" : 0,
					"source" : [ "obj-30", 0 ]
				}

			}
, 			{
				"patchline" : 				{
					"destination" : [ "obj-77", 0 ],
					"hidden" : 1,
					"order" : 1,
					"source" : [ "obj-30", 0 ]
				}

			}
, 			{
				"patchline" : 				{
					"destination" : [ "obj-58", 0 ],
					"hidden" : 1,
					"source" : [ "obj-31", 0 ]
				}

			}
, 			{
				"patchline" : 				{
					"destination" : [ "obj-35", 0 ],
					"hidden" : 1,
					"source" : [ "obj-34", 0 ]
				}

			}
, 			{
				"patchline" : 				{
					"destination" : [ "obj-36", 0 ],
					"hidden" : 1,
					"source" : [ "obj-35", 0 ]
				}

			}
, 			{
				"patchline" : 				{
					"destination" : [ "obj-28", 0 ],
					"hidden" : 1,
					"source" : [ "obj-36", 0 ]
				}

			}
, 			{
				"patchline" : 				{
					"destination" : [ "obj-19", 0 ],
					"hidden" : 1,
					"source" : [ "obj-37", 0 ]
				}

			}
, 			{
				"patchline" : 				{
					"destination" : [ "obj-34", 0 ],
					"hidden" : 1,
					"source" : [ "obj-38", 0 ]
				}

			}
, 			{
				"patchline" : 				{
					"destination" : [ "obj-11", 0 ],
					"hidden" : 1,
					"order" : 3,
					"source" : [ "obj-39", 0 ]
				}

			}
, 			{
				"patchline" : 				{
					"destination" : [ "obj-29", 0 ],
					"hidden" : 1,
					"order" : 2,
					"source" : [ "obj-39", 0 ]
				}

			}
, 			{
				"patchline" : 				{
					"destination" : [ "obj-40", 0 ],
					"hidden" : 1,
					"order" : 1,
					"source" : [ "obj-39", 0 ]
				}

			}
, 			{
				"patchline" : 				{
					"destination" : [ "obj-44", 0 ],
					"hidden" : 1,
					"order" : 0,
					"source" : [ "obj-39", 0 ]
				}

			}
, 			{
				"patchline" : 				{
					"destination" : [ "obj-7", 0 ],
					"source" : [ "obj-4", 0 ]
				}

			}
, 			{
				"patchline" : 				{
					"destination" : [ "obj-43", 0 ],
					"hidden" : 1,
					"source" : [ "obj-40", 0 ]
				}

			}
, 			{
				"patchline" : 				{
					"destination" : [ "obj-30", 0 ],
					"hidden" : 1,
					"source" : [ "obj-43", 0 ]
				}

			}
, 			{
				"patchline" : 				{
					"destination" : [ "obj-53", 0 ],
					"hidden" : 1,
					"source" : [ "obj-44", 0 ]
				}

			}
, 			{
				"patchline" : 				{
					"destination" : [ "obj-7", 1 ],
					"hidden" : 1,
					"source" : [ "obj-45", 0 ]
				}

			}
, 			{
				"patchline" : 				{
					"destination" : [ "obj-5", 0 ],
					"hidden" : 1,
					"source" : [ "obj-46", 0 ]
				}

			}
, 			{
				"patchline" : 				{
					"destination" : [ "obj-4", 0 ],
					"hidden" : 1,
					"midpoints" : [ 41.318268418312073, 693.13045346736908, 129.467013597488403, 693.13045346736908 ],
					"order" : 1,
					"source" : [ "obj-49", 0 ]
				}

			}
, 			{
				"patchline" : 				{
					"destination" : [ "obj-46", 0 ],
					"hidden" : 1,
					"midpoints" : [ 41.318268418312073, 710.052628517150879, 210.980482399463654, 710.052628517150879 ],
					"order" : 0,
					"source" : [ "obj-49", 0 ]
				}

			}
, 			{
				"patchline" : 				{
					"destination" : [ "obj-61", 1 ],
					"hidden" : 1,
					"source" : [ "obj-5", 0 ]
				}

			}
, 			{
				"patchline" : 				{
					"destination" : [ "obj-72", 0 ],
					"order" : 0,
					"source" : [ "obj-5", 1 ]
				}

			}
, 			{
				"patchline" : 				{
					"destination" : [ "obj-78", 0 ],
					"hidden" : 1,
					"order" : 1,
					"source" : [ "obj-5", 1 ]
				}

			}
, 			{
				"patchline" : 				{
					"destination" : [ "obj-5", 0 ],
					"hidden" : 1,
					"source" : [ "obj-53", 0 ]
				}

			}
, 			{
				"patchline" : 				{
					"destination" : [ "obj-65", 0 ],
					"source" : [ "obj-61", 0 ]
				}

			}
, 			{
				"patchline" : 				{
					"destination" : [ "obj-26", 0 ],
					"source" : [ "obj-7", 0 ]
				}

			}
, 			{
				"patchline" : 				{
					"destination" : [ "obj-29", 0 ],
					"hidden" : 1,
					"source" : [ "obj-83", 0 ]
				}

			}
, 			{
				"patchline" : 				{
					"destination" : [ "obj-11", 0 ],
					"hidden" : 1,
					"source" : [ "obj-84", 0 ]
				}

			}
, 			{
				"patchline" : 				{
					"destination" : [ "obj-40", 0 ],
					"hidden" : 1,
					"source" : [ "obj-85", 0 ]
				}

			}
, 			{
				"patchline" : 				{
					"destination" : [ "obj-44", 0 ],
					"hidden" : 1,
					"source" : [ "obj-86", 0 ]
				}

			}
 ],
		"parameters" : 		{
			"obj-18" : [ "Resolution", "Resolution", 0 ],
			"obj-70" : [ "Sampling Rate", "SMPL Rate", 0 ],
			"obj-77" : [ "Drive Factor", "Drive", 0 ],
			"obj-78" : [ "Phasor Gain", "Phasor", 0 ],
			"obj-9" : [ "Distortion", "Distortion", 0 ],
			"parameterbanks" : 			{
				"0" : 				{
					"index" : 0,
					"name" : "",
					"parameters" : [ "-", "-", "-", "-", "-", "-", "-", "-" ]
				}

			}
,
			"inherited_shortname" : 1
		}
,
		"dependency_cache" : [  ],
		"autosave" : 0,
		"boxgroups" : [ 			{
				"boxes" : [ "obj-9", "obj-42", "obj-70", "obj-77", "obj-18", "obj-78" ]
			}
 ]
	}

}
